<!--?xml version="1.0" standalone="no"?-->
              <svg id="sw-js-blob-svg" viewBox="0 0 100 100" xmlns="http://www.w3.org/2000/svg" version="1.1">
                    <defs> 
                        <linearGradient id="sw-gradient" x1="0" x2="1" y1="1" y2="0">
                            <stop id="stop1" stop-color="rgba(29.423, 137.315, 217.12, 0.9)" offset="0%"></stop>
                            <stop id="stop2" stop-color="rgba(8.106, 224.172, 235.334, 1)" offset="100%"></stop>
                        </linearGradient>
                    </defs>
                <path fill="url(#sw-gradient)" d="M16,-27C20.7,-24.9,24.6,-20.7,28.5,-15.8C32.4,-11,36.2,-5.5,34.8,-0.8C33.5,3.9,26.9,7.8,22.3,11.4C17.7,15,15,18.2,11.6,18.7C8.2,19.3,4.1,17.2,-1.5,19.7C-7.1,22.3,-14.2,29.6,-20,30.4C-25.8,31.2,-30.3,25.7,-28.9,19.5C-27.6,13.4,-20.4,6.7,-20.6,-0.1C-20.7,-6.9,-28.2,-13.7,-28.9,-18.8C-29.6,-23.8,-23.5,-27,-17.6,-28.4C-11.6,-29.8,-5.8,-29.3,-0.1,-29.1C5.6,-29,11.2,-29,16,-27Z" width="100%" height="100%" transform="translate(50 50)" stroke-width="0" style="transition: all 0.3s ease 0s;" stroke="url(#sw-gradient)"></path>
              </svg>