<svg id="visual" viewBox="0 0 900 600" width="900" height="600" xmlns="http://www.w3.org/2000/svg" xmlns:xlink="http://www.w3.org/1999/xlink" version="1.1"><g transform="translate(34.27975036102225 -13.963056512107983)"><path d="M418.8 -511.2C557.9 -382.5 696 -264.8 626 -181.4C556.1 -98.1 278 -49 203.2 151.7C128.3 352.4 256.5 704.8 222.3 798.7C188.1 892.7 -8.6 728.3 -181.2 614.7C-353.9 501.2 -502.6 438.6 -596.7 322C-690.9 205.4 -730.5 34.8 -706.5 -128.6C-682.5 -292 -594.8 -448.2 -466.5 -578.7C-338.1 -709.3 -169.1 -814.1 -14.6 -796.8C139.9 -779.4 279.8 -639.8 418.8 -511.2" fill="#ccabed"></path></g></svg>