<svg id="visual" viewBox="0 0 900 600" width="900" height="600" xmlns="http://www.w3.org/2000/svg" xmlns:xlink="http://www.w3.org/1999/xlink" version="1.1"><g transform="translate(868.9132143744093 -75.17098756050837)"><path d="M271.3 -431.2C369.6 -413.1 479.7 -376.8 555.6 -301.9C631.5 -227 673.3 -113.5 639.2 -19.7C605.1 74.2 495.3 148.3 444.8 267.4C394.4 386.5 403.5 550.5 339.2 629.6C275 708.6 137.5 702.8 34.4 643.3C-68.8 583.7 -137.5 470.5 -237.2 411.9C-337 353.3 -467.7 349.4 -533.5 289.9C-599.3 230.3 -600.1 115.2 -569.7 17.6C-539.2 -80 -477.5 -160 -436.8 -263.1C-396.1 -366.1 -376.6 -492.2 -307.3 -527.1C-238 -561.9 -119 -505.4 -16.3 -477.3C86.5 -449.2 173 -449.3 271.3 -431.2" fill="#ccabed"></path></g></svg>