<svg id="visual" viewBox="0 0 900 600" width="900" height="600" xmlns="http://www.w3.org/2000/svg" xmlns:xlink="http://www.w3.org/1999/xlink" version="1.1"><rect x="0" y="0" width="900" height="600" fill="#ffffff"></rect><defs><linearGradient id="grad1_0" x1="33.3%" y1="0%" x2="100%" y2="100%"><stop offset="20%" stop-color="#ffffff" stop-opacity="1"></stop><stop offset="80%" stop-color="#ffffff" stop-opacity="1"></stop></linearGradient></defs><defs><linearGradient id="grad2_0" x1="0%" y1="0%" x2="66.7%" y2="100%"><stop offset="20%" stop-color="#ffffff" stop-opacity="1"></stop><stop offset="80%" stop-color="#ffffff" stop-opacity="1"></stop></linearGradient></defs><g transform="translate(900, 0)"><path d="M0 351.5C-31.1 330 -62.2 308.5 -97.6 300.5C-133.1 292.5 -172.8 298.1 -206.6 284.4C-240.5 270.7 -268.4 237.9 -278.3 202.2C-288.2 166.5 -279.9 128.1 -289.1 93.9C-298.3 59.8 -324.9 29.9 -351.5 0L0 0Z" fill="#ccabed"></path></g><g transform="translate(0, 600)"><path d="M0 -351.5C30.8 -323.6 61.6 -295.7 89.9 -276.8C118.2 -257.8 144.1 -247.8 170.5 -234.6C196.9 -221.4 223.9 -204.9 254 -184.6C284.2 -164.2 317.6 -140 334.3 -108.6C351.1 -77.2 351.3 -38.6 351.5 0L0 0Z" fill="#ccabed"></path></g></svg>