<svg id="visual" viewBox="0 0 900 900" width="900" height="900" xmlns="http://www.w3.org/2000/svg" xmlns:xlink="http://www.w3.org/1999/xlink" version="1.1"><path d="M0 352L82 352L82 325L164 325L164 262L245 262L245 172L327 172L327 280L409 280L409 370L491 370L491 370L573 370L573 307L655 307L655 136L736 136L736 316L818 316L818 253L900 253L900 280L900 0L900 0L818 0L818 0L736 0L736 0L655 0L655 0L573 0L573 0L491 0L491 0L409 0L409 0L327 0L327 0L245 0L245 0L164 0L164 0L82 0L82 0L0 0Z" fill="#ffffff"></path><path d="M0 451L82 451L82 415L164 415L164 433L245 433L245 316L327 316L327 379L409 379L409 442L491 442L491 433L573 433L573 415L655 415L655 316L736 316L736 496L818 496L818 352L900 352L900 415L900 278L900 251L818 251L818 314L736 314L736 134L655 134L655 305L573 305L573 368L491 368L491 368L409 368L409 278L327 278L327 170L245 170L245 260L164 260L164 323L82 323L82 350L0 350Z" fill="#f7cdd7"></path><path d="M0 667L82 667L82 703L164 703L164 577L245 577L245 613L327 613L327 712L409 712L409 622L491 622L491 595L573 595L573 613L655 613L655 658L736 658L736 685L818 685L818 550L900 550L900 640L900 413L900 350L818 350L818 494L736 494L736 314L655 314L655 413L573 413L573 431L491 431L491 440L409 440L409 377L327 377L327 314L245 314L245 431L164 431L164 413L82 413L82 449L0 449Z" fill="#ea9bb0"></path><path d="M0 748L82 748L82 847L164 847L164 775L245 775L245 802L327 802L327 829L409 829L409 829L491 829L491 838L573 838L573 829L655 829L655 784L736 784L736 820L818 820L818 775L900 775L900 766L900 638L900 548L818 548L818 683L736 683L736 656L655 656L655 611L573 611L573 593L491 593L491 620L409 620L409 710L327 710L327 611L245 611L245 575L164 575L164 701L82 701L82 665L0 665Z" fill="#da678b"></path><path d="M0 901L82 901L82 901L164 901L164 901L245 901L245 901L327 901L327 901L409 901L409 901L491 901L491 901L573 901L573 901L655 901L655 901L736 901L736 901L818 901L818 901L900 901L900 901L900 764L900 773L818 773L818 818L736 818L736 782L655 782L655 827L573 827L573 836L491 836L491 827L409 827L409 827L327 827L327 800L245 800L245 773L164 773L164 845L82 845L82 746L0 746Z" fill="#c62368"></path></svg>