<svg id="visual" viewBox="0 0 900 900" width="900" height="900" xmlns="http://www.w3.org/2000/svg" xmlns:xlink="http://www.w3.org/1999/xlink" version="1.1"><g fill="none" stroke="#e36f9f" stroke-width="7"><path d="M47.8 27.6L47.8 123.1L-47.8 123.1L-47.8 27.6L-130.5 -20.2L-82.7 -102.9L0 -55.2L82.7 -102.9L130.5 -20.2Z" transform="translate(610 820)"></path><path d="M41.8 24.1L41.8 107.8L-41.8 107.8L-41.8 24.1L-114.3 -17.7L-72.4 -90.1L0 -48.3L72.4 -90.1L114.3 -17.7Z" transform="translate(461 480)"></path><path d="M41.8 24.1L41.8 107.8L-41.8 107.8L-41.8 24.1L-114.3 -17.7L-72.4 -90.1L0 -48.3L72.4 -90.1L114.3 -17.7Z" transform="translate(43 671)"></path></g></svg>