<svg xmlns="http://www.w3.org/2000/svg" width="500" height="500" viewBox="0 0 500 500" version="1.1"><path d="M 195.831 16.953 C 181.772 19.537, 164.192 28.332, 157.750 36.005 L 154.649 39.699 150.075 38.313 C 141.375 35.676, 132.672 39.437, 124.932 49.176 C 115.517 61.025, 111.747 75.818, 111.600 101.500 C 111.493 119.979, 112.656 128.975, 116.680 140.815 C 119.099 147.935, 119.120 148.241, 117.474 152.315 C 116.377 155.030, 115.808 159.119, 115.855 163.955 C 115.953 174.094, 119.624 181.566, 129.076 190.870 C 132.884 194.618, 136 198.426, 136 199.332 C 136 200.238, 137.218 204.020, 138.706 207.737 C 140.864 213.128, 143.094 216.242, 149.726 223.121 C 159.526 233.287, 167.394 237.757, 181.871 241.384 C 190.976 243.665, 191.132 243.752, 187.371 244.446 C 177.259 246.310, 160.095 256.008, 152.054 264.403 C 150.158 266.381, 148.021 268, 147.304 268 C 146.587 268, 145.062 268.938, 143.917 270.083 C 141.970 272.030, 141.849 273.128, 142.079 286.833 C 142.329 301.804, 140.860 312.285, 137.270 321.142 C 135.230 326.176, 136.204 329.412, 142.025 336.933 C 145.494 341.415, 147.004 344.290, 147.014 346.430 C 147.021 348.119, 147.302 350.527, 147.639 351.782 L 148.250 354.063 121.540 353.950 C 106.850 353.887, 94.592 354.075, 94.300 354.367 C 94.007 354.659, 93.779 377.734, 93.792 405.645 L 93.817 456.393 99.117 458.732 C 106.602 462.035, 118.574 465.378, 120.404 464.675 C 121.771 464.151, 121.922 458.562, 121.724 415.995 L 121.500 367.907 146.162 368.071 L 170.824 368.235 174.615 372.118 C 179.235 376.849, 178.017 377.011, 169.780 372.758 C 163.998 369.773, 162.747 369.515, 154 369.508 C 145.712 369.501, 143.932 369.819, 140.047 372 C 131.190 376.972, 126.271 387.232, 128.911 395.230 C 130.262 399.325, 137.018 406.050, 142.560 408.819 C 148.602 411.837, 157.988 414, 165.042 414 L 171.296 414 167.957 416.250 C 163.285 419.399, 159.569 426.889, 160.422 431.437 C 161.201 435.591, 165.014 440.414, 169.369 442.755 C 173.426 444.936, 186.996 444.879, 196 442.643 C 203.846 440.695, 215.614 440.623, 230.778 442.431 C 243.588 443.957, 248.611 443.296, 253.699 439.416 C 257.591 436.448, 259.407 430.907, 258.046 426.159 C 256.894 422.144, 253.331 416.279, 251.712 415.733 C 251.045 415.508, 252.630 414.380, 255.233 413.226 C 261.045 410.649, 265.872 407.176, 272.829 400.564 C 282.731 391.156, 285.114 381.902, 280.509 370.750 C 279.868 369.198, 280.461 369, 285.737 369 L 291.688 369 292.494 404.250 C 293.628 453.821, 292.974 448.926, 298.866 451.932 C 302.299 453.683, 319.202 459, 321.338 459 C 321.897 459, 322.019 446.649, 321.648 427.750 C 321.310 410.563, 321.398 395.926, 321.842 395.224 C 322.391 394.357, 323.517 395.719, 325.356 399.474 C 327.564 403.984, 328.522 405, 330.566 405 C 332.545 405, 333.474 405.892, 334.990 409.250 C 337.269 414.297, 339.306 417, 340.830 417 C 341.440 417, 340.828 418.638, 339.470 420.640 C 337.753 423.170, 337 425.644, 337 428.758 C 337 432.308, 336.378 433.944, 334 436.653 C 329.817 441.417, 329.932 445.725, 334.368 450.429 C 336.322 452.501, 338.696 454, 340.023 454 C 342.120 454, 342.182 454.146, 340.773 455.750 C 336.641 460.456, 338.141 464.560, 344.527 466.016 C 352.681 467.876, 361.719 463.155, 365.098 455.271 C 366.749 451.421, 367.348 450.862, 369.263 451.387 C 370.493 451.725, 373.175 452.281, 375.222 452.624 C 379.679 453.370, 380.910 455.963, 378.530 459.595 C 376.435 462.792, 372.831 464.425, 369.637 463.624 C 367.710 463.140, 367.046 462.239, 366.780 459.747 L 366.434 456.500 365.021 459.328 C 362.343 464.686, 367.642 468.323, 374.941 466.136 C 379.823 464.673, 382.494 460.444, 381.587 455.612 C 381.006 452.514, 381.058 452.465, 385.082 452.359 C 388.815 452.261, 389.108 452.435, 388.479 454.376 C 386.751 459.711, 386.841 462.546, 388.793 464.313 C 392.028 467.241, 396.998 467.481, 402.342 464.969 C 407.733 462.435, 410.157 458.728, 410.468 452.543 C 410.580 450.320, 411.478 446.700, 412.464 444.500 C 414.829 439.221, 414.743 433.925, 412.224 429.655 L 410.176 426.184 412.588 423.917 C 415.439 421.239, 415.843 415.530, 413.501 411.002 C 410.530 405.257, 402.038 401.004, 398.233 403.356 C 396.390 404.495, 397.881 395.534, 400.539 389.500 C 401.750 386.750, 403.047 383.101, 403.419 381.391 C 403.792 379.680, 405.482 376.980, 407.174 375.391 C 411.154 371.652, 415.998 361.505, 415.999 356.905 C 416.001 350.567, 409.395 347, 397.655 347 C 391.972 347, 389.925 346.613, 388.872 345.342 C 386.898 342.956, 376.506 338.247, 370.436 336.987 C 365.760 336.016, 364.947 335.434, 362.280 331.144 C 358.576 325.186, 353.209 322.257, 349.107 323.956 C 345.606 325.406, 343.546 329.006, 341.928 336.500 C 340.890 341.308, 339.690 343.544, 335.887 347.753 C 330.608 353.597, 327 361.871, 327 368.133 C 327 370.584, 326.210 373.300, 325.006 374.992 C 323.909 376.532, 322.639 379.526, 322.183 381.646 C 321.431 385.138, 321.282 385.282, 320.586 383.178 C 320.165 381.901, 320.152 379.651, 320.559 378.178 C 320.966 376.705, 321.407 370.775, 321.539 365 C 321.683 358.685, 323.021 347.525, 324.897 337 C 326.613 327.375, 327.900 318.150, 327.758 316.500 C 327.532 313.869, 326.979 313.374, 323.263 312.478 L 319.026 311.456 327.114 302.478 C 331.562 297.540, 335.606 293.350, 336.101 293.167 C 337.508 292.645, 337.154 291, 335.635 291 C 334.884 291, 333.126 290.100, 331.727 289 C 328.530 286.485, 327.629 286.472, 328.277 288.952 C 328.558 290.026, 328.482 291.038, 328.108 291.202 C 327.734 291.366, 326.361 293.019, 325.057 294.875 L 322.686 298.249 321.324 295.650 C 320.575 294.220, 318.994 292.532, 317.810 291.899 C 316.021 290.941, 315.450 291.063, 314.422 292.623 C 313.742 293.656, 310.781 297.476, 307.843 301.113 L 302.500 307.727 302.185 304.288 C 302.012 302.396, 302.302 298.825, 302.829 296.352 C 304.076 290.506, 303.060 286.973, 299.418 284.500 C 296.558 282.558, 296.497 282.347, 297.320 277.203 C 298.604 269.178, 298.270 269, 281.948 269 L 268.142 269 262.321 262.883 C 255.967 256.205, 246.506 249.038, 241 246.731 L 237.500 245.264 241.500 244.562 C 249.659 243.131, 263.541 238.832, 268.443 236.219 C 278.875 230.658, 290.548 215.254, 292.594 204.350 C 292.956 202.420, 293.758 200.689, 294.376 200.504 C 294.994 200.319, 296.749 199.893, 298.275 199.558 C 302.829 198.559, 308.673 192.484, 310.655 186.687 C 313.298 178.962, 313.109 168.354, 310.258 164.356 L 308.015 161.213 309.948 153.356 C 313.018 140.881, 314.910 130.041, 315.294 122.736 C 315.624 116.454, 315.879 115.803, 318.873 113.593 C 323.208 110.395, 328.615 102.615, 330.753 96.500 C 333.259 89.330, 332.965 76.061, 330.159 69.719 C 324.968 57.983, 317.799 53, 306.106 53 L 298.930 53 289.215 44.444 C 275.426 32.300, 256.699 23.295, 236.288 18.994 C 225.408 16.702, 203.273 15.585, 195.831 16.953 M 159.448 94.454 C 153.830 96.816, 147.921 107.432, 145.040 120.338 C 143.680 126.430, 141 144.897, 141 148.176 C 141 150.724, 141.334 151, 144.418 151 C 146.298 151, 148.542 151.271, 149.404 151.602 C 150.481 152.015, 151.290 151.367, 151.987 149.533 C 157.436 135.203, 178.983 129.608, 196.071 138.086 C 198.034 139.060, 202.600 142.477, 206.217 145.679 C 214.876 153.345, 220.691 158, 221.608 158 C 222.017 158, 224.860 155.375, 227.926 152.167 C 237.769 141.865, 256.030 135.312, 270.002 137.067 C 273.913 137.557, 278.630 138.680, 280.485 139.560 C 284.632 141.528, 291 147.577, 291 149.548 C 291 150.347, 291.450 151, 292 151 C 292.550 151, 293.016 149.537, 293.035 147.750 C 293.054 145.963, 293.726 140.900, 294.529 136.500 C 295.332 132.100, 296.256 126.925, 296.583 125 L 297.178 121.500 281.927 121.825 C 263.963 122.207, 252.603 121.110, 231.375 116.944 C 213.556 113.447, 203.183 109.935, 183.431 100.713 C 168.291 93.645, 164.022 92.531, 159.448 94.454 M 173.132 137.036 C 162.436 139.240, 156.133 144.444, 153.525 153.229 C 150.582 163.136, 152.136 170.561, 158.362 176.343 C 166.820 184.198, 173.596 185.689, 190.327 183.375 C 203.849 181.505, 206.959 179.650, 209.526 171.923 C 211.649 165.531, 211.177 156.035, 208.461 150.511 C 206.242 145.997, 197.708 139.515, 192.062 138.055 C 186.174 136.533, 177.771 136.081, 173.132 137.036 M 255.347 140.065 C 243.257 142.155, 233.563 147.357, 230.638 153.325 C 228.159 158.383, 228.178 168.523, 230.675 173.268 C 233.204 178.075, 241.207 184.691, 246.274 186.165 C 251.857 187.788, 267.484 187.724, 272.416 186.058 C 279.069 183.811, 284.699 177.714, 286.999 170.268 C 289.535 162.059, 289.517 158.699, 286.910 153.315 C 282.172 143.527, 268.506 137.790, 255.347 140.065 M 128.001 145.101 C 123.792 146.817, 121.034 150.148, 119.475 155.397 C 116.094 166.782, 121.704 180.305, 131.315 183.936 C 135.943 185.685, 137.301 185.335, 136.607 182.572 C 136.272 181.236, 135.965 174.829, 135.924 168.334 C 135.882 161.578, 135.395 155.976, 134.787 155.243 C 134.012 154.309, 134.217 153.418, 135.544 151.951 C 136.981 150.363, 137.164 149.366, 136.414 147.220 C 135.353 144.186, 132.197 143.391, 128.001 145.101 M 177.750 156.080 C 174.919 157.729, 172.732 162.909, 173.418 166.340 C 174.273 170.613, 177.736 174, 181.251 174 C 184.671 174, 189.562 169.591, 190.562 165.609 C 192.341 158.520, 184.093 152.386, 177.750 156.080 M 139.260 174.250 C 140.002 199.235, 143.176 209.726, 153.321 220.733 C 159.790 227.750, 177.464 236.528, 190.200 239.049 C 201.615 241.308, 205 242.235, 205 243.100 C 205 243.595, 203.023 244, 200.607 244 C 196.132 244, 195 244.990, 195 248.907 C 195 254.125, 207.160 258.467, 215.106 256.087 C 219.294 254.832, 226 249.300, 226 247.100 C 226 246.450, 223.854 245.968, 220.750 245.921 C 217.863 245.878, 216.175 245.594, 217 245.291 C 217.825 244.987, 219.175 244.180, 220 243.496 C 220.825 242.812, 226.675 241.717, 233 241.061 C 253.611 238.924, 265.396 234.716, 275.343 225.940 C 286.111 216.439, 290.333 203.806, 291.488 177.629 L 291.979 166.500 289.975 172.677 C 287.835 179.273, 284.557 182.696, 276.500 186.743 C 269.823 190.098, 258.359 192.232, 251 191.490 L 244.500 190.835 235.396 182.126 C 229.161 176.161, 225.901 172.231, 225.050 169.650 C 223.909 166.196, 223.696 166.033, 222.477 167.691 C 221.195 169.436, 221.040 169.436, 218.066 167.689 C 214.737 165.732, 214.786 165.691, 213.506 171.500 C 211.737 179.522, 204.730 184.024, 190.096 186.542 C 174.747 189.182, 164.311 186.316, 155.681 177.090 C 150.907 171.986, 148.737 166.565, 149.647 162.015 C 150.128 159.610, 149.789 159.122, 146.949 158.132 C 145.163 157.509, 142.587 157, 141.225 157 L 138.748 157 139.260 174.250 M 254.248 161.250 C 251.363 164.341, 250.522 168.431, 252.024 172.058 C 256.112 181.927, 270.215 175.960, 267.583 165.475 C 266.005 159.187, 258.417 156.784, 254.248 161.250 M 297.492 163.013 C 297.148 163.570, 296.228 170.207, 295.449 177.763 C 294.669 185.318, 293.759 193.188, 293.428 195.250 C 292.747 199.482, 292.814 199.522, 297.389 197.611 C 310.171 192.270, 314.992 171.645, 305.249 163.981 C 302.551 161.859, 298.517 161.355, 297.492 163.013 M 234.147 206.164 C 230.636 210.493, 224.299 213.457, 221.391 212.132 C 220.115 211.551, 218.830 211.467, 218.534 211.945 C 217.907 212.959, 208 210.010, 208 208.809 C 208 208.364, 207.550 208, 207 208 C 204.500 208, 206.426 209.934, 210.750 211.767 C 217.068 214.444, 226.835 214.261, 230.677 211.392 C 233.643 209.178, 237.618 204.257, 236.933 203.648 C 236.695 203.437, 235.441 204.569, 234.147 206.164 M 145.492 273.027 C 144.560 275.961, 146.610 306.203, 150.546 347.588 L 151.124 353.676 196.226 354.338 C 258.858 355.257, 286.775 355.173, 287.461 354.062 C 287.780 353.547, 288.679 348.259, 289.458 342.312 C 290.238 336.366, 291.831 324.260, 292.999 315.411 L 295.122 299.322 291.561 295.761 C 286.834 291.034, 286.816 285.781, 291.520 283.992 C 294.450 282.878, 297.106 273.314, 294.877 271.903 C 294.120 271.423, 260.343 271.024, 219.817 271.015 C 146.683 271, 146.130 271.015, 145.492 273.027 M 292.750 287.080 C 289.544 288.948, 290.809 294.597, 294.771 296.103 C 296.615 296.804, 297.889 296.647, 299.635 295.504 C 302.542 293.599, 302.608 292.043, 299.927 288.635 C 297.740 285.854, 295.637 285.399, 292.750 287.080 M 328.504 292.996 C 327.307 294.318, 327.093 295.343, 327.762 296.540 C 328.589 298.017, 328.968 297.854, 330.846 295.216 C 332.559 292.810, 332.708 292.102, 331.588 291.672 C 330.818 291.377, 329.430 291.972, 328.504 292.996 M 324 297.885 C 324 298.372, 321.975 301.230, 319.500 304.236 C 317.025 307.243, 315 309.994, 315 310.351 C 315 312.073, 316.982 310.509, 321.284 305.391 C 325.803 300.018, 327.139 297, 325 297 C 324.450 297, 324 297.398, 324 297.885 M 297.522 303.250 C 297.162 305.587, 296.636 308.892, 296.352 310.594 L 295.836 313.688 305.668 314.339 C 319.769 315.272, 325.226 315.174, 324.500 314 C 324.141 313.419, 318.613 313, 311.312 313 L 298.742 313 299.431 306 C 300.190 298.302, 298.629 296.054, 297.522 303.250 M 142.624 311 C 142.217 313.475, 141.391 317.851, 140.789 320.725 C 139.743 325.712, 139.825 326.141, 142.597 330.153 C 146.272 335.474, 146.464 334.411, 144.696 318.500 C 143.491 307.649, 143.293 306.931, 142.624 311 M 349.330 329.202 C 348.065 330.852, 346.397 335.311, 345.004 340.767 C 344.291 343.556, 342.416 346.531, 339.587 349.360 C 334.599 354.349, 330.977 362.721, 330.227 371 C 329.883 374.794, 328.995 377.377, 327.364 379.327 C 324.190 383.122, 324.208 389.757, 327.411 396.636 C 329.654 401.454, 330.058 401.795, 333.955 402.167 C 337.966 402.550, 338.086 402.477, 337.472 400.032 C 337.123 398.639, 335.769 395.267, 334.463 392.539 C 333.158 389.810, 332.255 387.411, 332.458 387.209 C 332.661 387.006, 333.986 387.600, 335.403 388.529 C 337.250 389.739, 338.560 392.165, 340.028 397.094 C 341.172 400.937, 342.831 404.367, 343.788 404.870 C 347.451 406.795, 355.608 407.190, 359.355 405.625 C 361.360 404.787, 363 403.684, 363 403.173 C 363 402.662, 360.075 399.676, 356.500 396.538 C 352.925 393.399, 350 390.419, 350 389.915 C 350 387.755, 352.947 389.509, 359.449 395.543 L 366.398 401.992 364.581 407.044 C 363.582 409.824, 362.934 412.268, 363.143 412.476 C 363.889 413.222, 378.826 410.176, 382.129 408.604 C 383.983 407.721, 387.485 405.287, 389.911 403.193 C 393.954 399.704, 394.333 398.975, 394.460 394.444 C 394.539 391.636, 395.497 387.772, 396.677 385.500 C 397.821 383.300, 399.057 380.102, 399.426 378.393 C 399.819 376.569, 401.108 374.745, 402.548 373.974 C 405.581 372.351, 410.895 363.151, 411.242 358.921 C 411.617 354.360, 407.967 351.928, 399.757 351.269 C 395.371 350.916, 393.039 351.127, 392.549 351.921 C 392.060 352.712, 390.449 351.825, 387.587 349.187 C 382.738 344.718, 370.239 340, 363.247 340 C 359.455 340, 359 339.748, 359 337.648 C 359 332.090, 351.882 325.872, 349.330 329.202 M 293.806 341.181 C 292.808 342.187, 291.831 345.375, 291.427 348.944 L 290.742 355 295.394 355 L 300.046 355 298.388 352.469 C 297.476 351.077, 296.453 347.583, 296.115 344.705 C 295.536 339.782, 295.400 339.574, 293.806 341.181 M 96 360.873 C 96 366.712, 96.767 367.173, 105.500 366.583 C 108.250 366.397, 157.412 366.190, 214.750 366.122 L 319 366 319 361.750 L 319 357.500 209.750 357.178 C 149.662 357.001, 99.487 356.615, 98.250 356.320 C 96.141 355.817, 96 356.102, 96 360.873 M 334.811 365.250 C 332.600 367.009, 331.736 371.631, 333.126 374.271 C 334.711 377.282, 335.928 377.967, 339.724 377.985 C 342.291 377.997, 343.260 377.398, 344.474 375.050 C 346.494 371.144, 346.399 368.714, 344.115 365.893 C 342.547 363.958, 341.972 363.779, 340.704 364.831 C 339.674 365.685, 338.967 365.756, 338.530 365.049 C 337.680 363.674, 336.728 363.725, 334.811 365.250 M 177.994 370.961 C 181.392 373.571, 188.078 375.313, 194.858 375.355 C 199.291 375.383, 201.785 374.716, 206.500 372.243 L 212.500 369.096 194 369.070 C 175.571 369.045, 175.510 369.052, 177.994 370.961 M 368.104 375.535 C 363.717 380.531, 363.909 385.338, 368.594 387.802 C 370.255 388.676, 371.555 388.475, 374.882 386.828 C 379.249 384.668, 382 380.772, 382 376.750 C 382 373.332, 380.150 372, 375.404 372 C 371.852 372, 370.730 372.543, 368.104 375.535 M 336 404.457 C 336 404.999, 339.161 413.285, 339.577 413.831 C 339.715 414.013, 340.721 413.685, 341.811 413.101 C 343.498 412.198, 343.885 412.406, 344.410 414.496 C 344.933 416.580, 345.592 416.938, 348.763 416.858 C 350.818 416.806, 353.400 416.929, 354.500 417.132 C 356.033 417.414, 357.015 416.450, 358.709 413 C 361.534 407.244, 361.519 406.807, 358.538 408.165 C 355.551 409.526, 341.775 407.642, 338.250 405.391 C 337.012 404.600, 336 404.180, 336 404.457 M 391.113 407.790 C 390.586 408.774, 388.995 410.200, 387.577 410.959 C 383.804 412.978, 383.945 417.618, 387.797 418.184 C 390.359 418.560, 390.560 418.361, 390.186 415.817 C 389.944 414.162, 390.618 411.618, 391.856 409.520 C 392.998 407.584, 393.514 406, 393.001 406 C 392.489 406, 391.639 406.805, 391.113 407.790 M 396.392 408.517 C 394.556 410.353, 393.960 411.881, 394.188 414.168 C 394.464 416.939, 395.025 417.455, 399.023 418.616 C 401.510 419.337, 404.614 420.924, 405.921 422.141 L 408.296 424.353 410.148 422.066 C 412.388 419.299, 412.510 415.887, 410.506 412.011 C 407.267 405.748, 400.770 404.139, 396.392 408.517 M 377.500 414.528 C 375.300 415.253, 370.604 415.881, 367.064 415.923 C 362.031 415.983, 360.155 416.445, 358.455 418.042 C 356.558 419.824, 355.934 419.927, 353.566 418.848 C 351.405 417.863, 350.444 417.866, 348.848 418.863 C 347.413 419.759, 346.478 419.811, 345.556 419.047 C 344.553 418.214, 343.909 419.264, 342.635 423.805 C 341.736 427.009, 341 430.930, 341 432.518 C 341 434.384, 339.917 436.522, 337.937 438.565 C 333.952 442.676, 333.699 447.154, 337.251 450.705 C 340.194 453.649, 342.804 453.382, 347.278 449.679 L 350.056 447.380 348.151 442.940 C 345.944 437.794, 344.630 431.653, 345.905 432.441 C 346.961 433.094, 352 445.455, 352 447.393 C 352 448.147, 350.215 450.550, 348.032 452.732 C 344.340 456.424, 341.363 461.696, 342.389 462.723 C 342.634 462.968, 344.649 463.412, 346.867 463.709 C 353.217 464.561, 358.948 460.650, 363.982 452.030 C 369.829 442.020, 372.208 435.982, 371.777 432.250 C 371.349 428.543, 372.668 427.829, 373.538 431.297 C 374.022 433.223, 371.910 440.395, 368.586 448.113 C 367.659 450.264, 373.777 451.415, 384.242 451.059 C 392.982 450.762, 394.121 451.621, 391.542 456.566 C 389.512 460.459, 389.604 461.718, 392.014 463.008 C 394.482 464.328, 399.757 463.434, 403.720 461.024 C 407.246 458.880, 410.057 450.978, 408.123 448.648 C 407.270 447.620, 407.362 446.226, 408.495 443.015 C 409.323 440.669, 410 437.658, 410 436.325 C 410 433.239, 407.374 428.131, 404.626 425.872 C 401.589 423.374, 392.386 420, 388.611 420 C 384.822 420, 383 418.474, 383 415.300 C 383 412.713, 383.004 412.714, 377.500 414.528 M 172.078 416.318 C 166.441 419.201, 163.895 422.642, 163.335 428.136 C 162.590 435.451, 168.761 442, 176.401 442 C 179.376 442, 179.350 442.144, 177.579 435.500 C 176.151 430.142, 176.506 420.300, 178.201 418.258 C 178.871 417.450, 180.551 417.224, 182.991 417.615 C 188.117 418.434, 189.135 416.409, 184.276 415.060 C 178.914 413.571, 177.080 413.760, 172.078 416.318 M 242.250 417.220 C 239.566 418.515, 239.550 418.679, 241.611 423.613 C 243.169 427.340, 243.095 432.842, 241.409 438.750 C 240.858 440.681, 241.144 441, 243.433 441 C 249.642 441, 256 435.097, 256 429.333 C 256 419.764, 249.270 413.835, 242.250 417.220" stroke="none" fill="#1f0d36" fill-rule="evenodd"/><path d="M 111.232 88 C 111.232 89.925, 111.438 90.713, 111.689 89.750 C 111.941 88.787, 111.941 87.213, 111.689 86.250 C 111.438 85.287, 111.232 86.075, 111.232 88 M 425.013 93.275 C 419.614 96.130, 416.994 100.784, 417.016 107.484 C 417.045 116.153, 422.456 123.159, 430.577 125.043 C 441.670 127.615, 453.648 123.918, 457.715 116.666 C 459.374 113.707, 459.305 106.482, 457.585 103.200 C 451.996 92.531, 435.769 87.587, 425.013 93.275 M 159.448 94.454 C 153.830 96.816, 147.921 107.432, 145.040 120.338 C 143.680 126.430, 141 144.897, 141 148.176 C 141 150.724, 141.334 151, 144.418 151 C 146.298 151, 148.542 151.271, 149.404 151.602 C 150.481 152.015, 151.290 151.367, 151.987 149.533 C 157.436 135.203, 178.983 129.608, 196.071 138.086 C 198.034 139.060, 202.600 142.477, 206.217 145.679 C 214.876 153.345, 220.691 158, 221.608 158 C 222.017 158, 224.860 155.375, 227.926 152.167 C 237.769 141.865, 256.030 135.312, 270.002 137.067 C 273.913 137.557, 278.630 138.680, 280.485 139.560 C 284.632 141.528, 291 147.577, 291 149.548 C 291 150.347, 291.450 151, 292 151 C 292.550 151, 293.016 149.537, 293.035 147.750 C 293.054 145.963, 293.726 140.900, 294.529 136.500 C 295.332 132.100, 296.256 126.925, 296.583 125 L 297.178 121.500 281.927 121.825 C 263.963 122.207, 252.603 121.110, 231.375 116.944 C 213.556 113.447, 203.183 109.935, 183.431 100.713 C 168.291 93.645, 164.022 92.531, 159.448 94.454 M 329.569 99.490 C 327.604 104.193, 322.491 110.925, 318.835 113.622 C 315.885 115.798, 315.623 116.473, 315.294 122.736 C 314.910 130.041, 313.018 140.881, 309.948 153.356 L 308.015 161.213 310.258 164.356 C 313.109 168.354, 313.298 178.962, 310.655 186.687 C 308.673 192.484, 302.829 198.559, 298.275 199.558 C 296.749 199.893, 294.994 200.319, 294.376 200.504 C 293.758 200.689, 292.956 202.420, 292.594 204.350 C 290.548 215.254, 278.875 230.658, 268.443 236.219 C 263.541 238.832, 249.659 243.131, 241.500 244.562 L 237.500 245.264 241 246.731 C 246.506 249.038, 255.967 256.205, 262.321 262.883 L 268.142 269 281.948 269 C 298.270 269, 298.604 269.178, 297.320 277.203 C 296.497 282.347, 296.558 282.558, 299.418 284.500 C 303.060 286.973, 304.076 290.506, 302.829 296.352 C 302.302 298.825, 302.012 302.396, 302.185 304.288 L 302.500 307.727 307.843 301.113 C 310.781 297.476, 313.742 293.656, 314.422 292.623 C 315.450 291.063, 316.021 290.941, 317.810 291.899 C 318.994 292.532, 320.575 294.220, 321.324 295.650 L 322.686 298.249 325.057 294.875 C 326.361 293.019, 327.734 291.366, 328.108 291.202 C 328.482 291.038, 328.558 290.026, 328.277 288.952 C 327.629 286.472, 328.530 286.485, 331.727 289 C 333.126 290.100, 334.884 291, 335.635 291 C 337.154 291, 337.508 292.645, 336.101 293.167 C 335.606 293.350, 331.562 297.540, 327.114 302.478 L 319.026 311.456 323.263 312.478 C 326.979 313.374, 327.532 313.869, 327.758 316.500 C 327.900 318.150, 326.613 327.375, 324.897 337 C 323.021 347.525, 321.683 358.685, 321.539 365 C 321.407 370.775, 320.966 376.705, 320.559 378.178 C 320.152 379.651, 320.165 381.901, 320.586 383.178 C 321.282 385.282, 321.431 385.138, 322.183 381.646 C 322.639 379.526, 323.909 376.532, 325.006 374.992 C 326.210 373.300, 327 370.584, 327 368.133 C 327 361.871, 330.608 353.597, 335.887 347.753 C 339.690 343.544, 340.890 341.308, 341.928 336.500 C 343.546 329.006, 345.606 325.406, 349.107 323.956 C 353.209 322.257, 358.576 325.186, 362.280 331.144 C 364.947 335.434, 365.760 336.016, 370.436 336.987 C 376.506 338.247, 386.898 342.956, 388.872 345.342 C 389.925 346.613, 391.972 347, 397.655 347 C 409.395 347, 416.001 350.567, 415.999 356.905 C 415.998 361.505, 411.154 371.652, 407.174 375.391 C 405.482 376.980, 403.792 379.680, 403.419 381.391 C 403.047 383.101, 401.678 386.911, 400.378 389.858 C 399.078 392.804, 398.259 395.611, 398.558 396.094 C 398.857 396.578, 401.633 397.709, 404.726 398.609 C 420.973 403.332, 441.540 394.337, 448.028 379.670 C 449.045 377.370, 450.352 372.566, 450.931 368.994 C 452.206 361.136, 452.310 318.922, 451.076 310.391 C 449.822 301.727, 446.301 295.103, 436.216 282.437 C 424.649 267.909, 422.490 263.107, 422.533 252 C 422.563 244.475, 422.907 242.889, 425.533 238.174 C 427.931 233.871, 429.790 232.090, 435.219 228.898 C 438.914 226.726, 443.141 223.370, 444.612 221.442 C 448.030 216.961, 451 206.272, 451 198.453 C 451 186.333, 447.764 180.314, 432.361 163.787 C 425.490 156.414, 425.535 156.544, 424.111 139.979 C 423.380 131.485, 422.612 128.209, 420.121 122.979 C 414.287 110.729, 399.989 100.769, 383.516 97.480 C 377.417 96.262, 370.263 95.931, 353.223 96.079 L 330.914 96.271 329.569 99.490 M 107.500 102.036 C 101.559 103.279, 94.582 107.123, 88.371 112.575 C 80.466 119.516, 75.624 128.787, 74.001 140.092 C 72.543 150.246, 73.804 157.777, 80.035 176.119 C 86.896 196.321, 86.762 203.470, 79.318 214.250 C 77.893 216.313, 76.104 218, 75.342 218 C 73.045 218, 65.240 225.872, 63.050 230.397 C 60.701 235.248, 60.237 247.084, 62.104 254.499 C 64.503 264.027, 73.935 270.761, 91.500 275.486 C 101.869 278.275, 107.370 280.917, 108.401 283.602 C 109.598 286.722, 109.054 291, 107.460 291 C 101.589 291, 92.303 300.069, 88.831 309.195 C 83.079 324.313, 86.776 345.863, 96.139 351.791 C 99.095 353.663, 101.107 353.820, 123.792 353.949 L 148.256 354.088 147.642 351.794 C 147.304 350.532, 147.021 348.119, 147.014 346.430 C 147.004 344.290, 145.494 341.415, 142.025 336.933 C 136.204 329.412, 135.230 326.176, 137.270 321.142 C 140.860 312.285, 142.329 301.804, 142.079 286.833 C 141.849 273.128, 141.970 272.030, 143.917 270.083 C 145.062 268.938, 146.587 268, 147.304 268 C 148.021 268, 150.158 266.381, 152.054 264.403 C 160.095 256.008, 177.259 246.310, 187.371 244.446 C 191.132 243.752, 190.976 243.665, 181.871 241.384 C 167.394 237.757, 159.526 233.287, 149.726 223.121 C 143.094 216.242, 140.864 213.128, 138.706 207.737 C 137.218 204.020, 136 200.238, 136 199.332 C 136 198.426, 132.884 194.618, 129.076 190.870 C 119.624 181.566, 115.953 174.094, 115.855 163.955 C 115.808 159.119, 116.377 155.030, 117.474 152.315 C 119.120 148.241, 119.099 147.935, 116.680 140.815 C 113.863 132.526, 112.257 123.603, 111.216 110.454 L 110.500 101.409 107.500 102.036 M 173.132 137.036 C 162.436 139.240, 156.133 144.444, 153.525 153.229 C 150.582 163.136, 152.136 170.561, 158.362 176.343 C 166.820 184.198, 173.596 185.689, 190.327 183.375 C 203.849 181.505, 206.959 179.650, 209.526 171.923 C 211.649 165.531, 211.177 156.035, 208.461 150.511 C 206.242 145.997, 197.708 139.515, 192.062 138.055 C 186.174 136.533, 177.771 136.081, 173.132 137.036 M 255.347 140.065 C 243.257 142.155, 233.563 147.357, 230.638 153.325 C 228.159 158.383, 228.178 168.523, 230.675 173.268 C 233.204 178.075, 241.207 184.691, 246.274 186.165 C 251.857 187.788, 267.484 187.724, 272.416 186.058 C 279.069 183.811, 284.699 177.714, 286.999 170.268 C 289.535 162.059, 289.517 158.699, 286.910 153.315 C 282.172 143.527, 268.506 137.790, 255.347 140.065 M 128.001 145.101 C 123.792 146.817, 121.034 150.148, 119.475 155.397 C 116.094 166.782, 121.704 180.305, 131.315 183.936 C 135.943 185.685, 137.301 185.335, 136.607 182.572 C 136.272 181.236, 135.965 174.829, 135.924 168.334 C 135.882 161.578, 135.395 155.976, 134.787 155.243 C 134.012 154.309, 134.217 153.418, 135.544 151.951 C 136.981 150.363, 137.164 149.366, 136.414 147.220 C 135.353 144.186, 132.197 143.391, 128.001 145.101 M 177.750 156.080 C 174.919 157.729, 172.732 162.909, 173.418 166.340 C 174.273 170.613, 177.736 174, 181.251 174 C 184.671 174, 189.562 169.591, 190.562 165.609 C 192.341 158.520, 184.093 152.386, 177.750 156.080 M 139.260 174.250 C 140.002 199.235, 143.176 209.726, 153.321 220.733 C 159.790 227.750, 177.464 236.528, 190.200 239.049 C 201.615 241.308, 205 242.235, 205 243.100 C 205 243.595, 203.023 244, 200.607 244 C 196.132 244, 195 244.990, 195 248.907 C 195 254.125, 207.160 258.467, 215.106 256.087 C 219.294 254.832, 226 249.300, 226 247.100 C 226 246.450, 223.854 245.968, 220.750 245.921 C 217.863 245.878, 216.175 245.594, 217 245.291 C 217.825 244.987, 219.175 244.180, 220 243.496 C 220.825 242.812, 226.675 241.717, 233 241.061 C 253.611 238.924, 265.396 234.716, 275.343 225.940 C 286.111 216.439, 290.333 203.806, 291.488 177.629 L 291.979 166.500 289.975 172.677 C 287.835 179.273, 284.557 182.696, 276.500 186.743 C 269.823 190.098, 258.359 192.232, 251 191.490 L 244.500 190.835 235.396 182.126 C 229.161 176.161, 225.901 172.231, 225.050 169.650 C 223.909 166.196, 223.696 166.033, 222.477 167.691 C 221.195 169.436, 221.040 169.436, 218.066 167.689 C 214.737 165.732, 214.786 165.691, 213.506 171.500 C 211.737 179.522, 204.730 184.024, 190.096 186.542 C 174.747 189.182, 164.311 186.316, 155.681 177.090 C 150.907 171.986, 148.737 166.565, 149.647 162.015 C 150.128 159.610, 149.789 159.122, 146.949 158.132 C 145.163 157.509, 142.587 157, 141.225 157 L 138.748 157 139.260 174.250 M 254.248 161.250 C 251.363 164.341, 250.522 168.431, 252.024 172.058 C 256.112 181.927, 270.215 175.960, 267.583 165.475 C 266.005 159.187, 258.417 156.784, 254.248 161.250 M 297.492 163.013 C 297.148 163.570, 296.228 170.207, 295.449 177.763 C 294.669 185.318, 293.759 193.188, 293.428 195.250 C 292.747 199.482, 292.814 199.522, 297.389 197.611 C 310.171 192.270, 314.992 171.645, 305.249 163.981 C 302.551 161.859, 298.517 161.355, 297.492 163.013 M 234.147 206.164 C 230.636 210.493, 224.299 213.457, 221.391 212.132 C 220.115 211.551, 218.830 211.467, 218.534 211.945 C 217.907 212.959, 208 210.010, 208 208.809 C 208 208.364, 207.550 208, 207 208 C 204.500 208, 206.426 209.934, 210.750 211.767 C 217.068 214.444, 226.835 214.261, 230.677 211.392 C 233.643 209.178, 237.618 204.257, 236.933 203.648 C 236.695 203.437, 235.441 204.569, 234.147 206.164 M 145.492 273.027 C 144.560 275.961, 146.610 306.203, 150.546 347.588 L 151.124 353.676 196.226 354.338 C 258.858 355.257, 286.775 355.173, 287.461 354.062 C 287.780 353.547, 288.679 348.259, 289.458 342.312 C 290.238 336.366, 291.831 324.260, 292.999 315.411 L 295.122 299.322 291.561 295.761 C 286.834 291.034, 286.816 285.781, 291.520 283.992 C 294.450 282.878, 297.106 273.314, 294.877 271.903 C 294.120 271.423, 260.343 271.024, 219.817 271.015 C 146.683 271, 146.130 271.015, 145.492 273.027 M 292.750 287.080 C 289.544 288.948, 290.809 294.597, 294.771 296.103 C 296.615 296.804, 297.889 296.647, 299.635 295.504 C 302.542 293.599, 302.608 292.043, 299.927 288.635 C 297.740 285.854, 295.637 285.399, 292.750 287.080 M 328.504 292.996 C 327.307 294.318, 327.093 295.343, 327.762 296.540 C 328.589 298.017, 328.968 297.854, 330.846 295.216 C 332.559 292.810, 332.708 292.102, 331.588 291.672 C 330.818 291.377, 329.430 291.972, 328.504 292.996 M 324 297.885 C 324 298.372, 321.975 301.230, 319.500 304.236 C 317.025 307.243, 315 309.994, 315 310.351 C 315 312.073, 316.982 310.509, 321.284 305.391 C 325.803 300.018, 327.139 297, 325 297 C 324.450 297, 324 297.398, 324 297.885 M 297.522 303.250 C 297.162 305.587, 296.636 308.892, 296.352 310.594 L 295.836 313.688 305.668 314.339 C 319.769 315.272, 325.226 315.174, 324.500 314 C 324.141 313.419, 318.613 313, 311.312 313 L 298.742 313 299.431 306 C 300.190 298.302, 298.629 296.054, 297.522 303.250 M 142.624 311 C 142.217 313.475, 141.391 317.851, 140.789 320.725 C 139.743 325.712, 139.825 326.141, 142.597 330.153 C 146.272 335.474, 146.464 334.411, 144.696 318.500 C 143.491 307.649, 143.293 306.931, 142.624 311 M 349.330 329.202 C 348.065 330.852, 346.397 335.311, 345.004 340.767 C 344.291 343.556, 342.416 346.531, 339.587 349.360 C 334.599 354.349, 330.977 362.721, 330.227 371 C 329.883 374.794, 328.995 377.377, 327.364 379.327 C 324.190 383.122, 324.208 389.757, 327.411 396.636 C 329.654 401.454, 330.058 401.795, 333.955 402.167 C 337.966 402.550, 338.086 402.477, 337.472 400.032 C 337.123 398.639, 335.769 395.267, 334.463 392.539 C 333.158 389.810, 332.255 387.411, 332.458 387.209 C 332.661 387.006, 333.986 387.600, 335.403 388.529 C 337.250 389.739, 338.560 392.165, 340.028 397.094 C 341.172 400.937, 342.831 404.367, 343.788 404.870 C 347.451 406.795, 355.608 407.190, 359.355 405.625 C 361.360 404.787, 363 403.684, 363 403.173 C 363 402.662, 360.075 399.676, 356.500 396.538 C 352.925 393.399, 350 390.419, 350 389.915 C 350 387.755, 352.947 389.509, 359.449 395.543 L 366.398 401.992 364.581 407.044 C 363.582 409.824, 362.934 412.268, 363.143 412.476 C 363.889 413.222, 378.826 410.176, 382.129 408.604 C 383.983 407.721, 387.485 405.287, 389.911 403.193 C 393.954 399.704, 394.333 398.975, 394.460 394.444 C 394.539 391.636, 395.497 387.772, 396.677 385.500 C 397.821 383.300, 399.057 380.102, 399.426 378.393 C 399.819 376.569, 401.108 374.745, 402.548 373.974 C 405.581 372.351, 410.895 363.151, 411.242 358.921 C 411.617 354.360, 407.967 351.928, 399.757 351.269 C 395.371 350.916, 393.039 351.127, 392.549 351.921 C 392.060 352.712, 390.449 351.825, 387.587 349.187 C 382.738 344.718, 370.239 340, 363.247 340 C 359.455 340, 359 339.748, 359 337.648 C 359 332.090, 351.882 325.872, 349.330 329.202 M 293.806 341.181 C 292.808 342.187, 291.831 345.375, 291.427 348.944 L 290.742 355 295.394 355 L 300.046 355 298.388 352.469 C 297.476 351.077, 296.453 347.583, 296.115 344.705 C 295.536 339.782, 295.400 339.574, 293.806 341.181 M 96 360.873 C 96 366.712, 96.767 367.173, 105.500 366.583 C 108.250 366.397, 157.412 366.190, 214.750 366.122 L 319 366 319 361.750 L 319 357.500 209.750 357.178 C 149.662 357.001, 99.487 356.615, 98.250 356.320 C 96.141 355.817, 96 356.102, 96 360.873 M 334.811 365.250 C 332.600 367.009, 331.736 371.631, 333.126 374.271 C 334.711 377.282, 335.928 377.967, 339.724 377.985 C 342.291 377.997, 343.260 377.398, 344.474 375.050 C 346.494 371.144, 346.399 368.714, 344.115 365.893 C 342.547 363.958, 341.972 363.779, 340.704 364.831 C 339.674 365.685, 338.967 365.756, 338.530 365.049 C 337.680 363.674, 336.728 363.725, 334.811 365.250 M 143.226 368.559 C 143.596 368.930, 148.310 369.307, 153.700 369.398 C 162.598 369.548, 164.078 369.859, 169.780 372.781 C 178.004 376.996, 179.230 376.843, 174.668 372.172 L 170.930 368.344 156.741 368.115 C 148.937 367.989, 142.855 368.189, 143.226 368.559 M 93.455 408 C 93.455 429.725, 93.587 438.613, 93.749 427.750 C 93.910 416.887, 93.910 399.112, 93.749 388.250 C 93.587 377.387, 93.455 386.275, 93.455 408 M 177.994 370.961 C 181.392 373.571, 188.078 375.313, 194.858 375.355 C 199.291 375.383, 201.785 374.716, 206.500 372.243 L 212.500 369.096 194 369.070 C 175.571 369.045, 175.510 369.052, 177.994 370.961 M 280.509 370.750 C 283.530 378.068, 283.371 385.433, 280.053 391.842 C 276.693 398.330, 263.958 409.362, 255.516 413.096 C 251.271 414.974, 251.144 415.149, 252.782 416.874 C 253.727 417.869, 254.848 418.496, 255.274 418.268 C 255.699 418.039, 258.174 418.671, 260.774 419.670 C 264.476 421.094, 268.351 421.489, 278.661 421.494 C 285.900 421.497, 292.011 421.275, 292.242 421 C 292.473 420.725, 292.459 408.913, 292.211 394.750 L 291.760 369 285.773 369 C 280.462 369, 279.868 369.198, 280.509 370.750 M 368.104 375.535 C 363.717 380.531, 363.909 385.338, 368.594 387.802 C 370.255 388.676, 371.555 388.475, 374.882 386.828 C 379.249 384.668, 382 380.772, 382 376.750 C 382 373.332, 380.150 372, 375.404 372 C 371.852 372, 370.730 372.543, 368.104 375.535 M 321.643 395.577 C 320.528 399.142, 321.224 424.056, 322.412 423.103 C 323.011 422.623, 324.936 421.924, 326.692 421.549 C 328.448 421.174, 331.665 419.576, 333.842 418 C 336.018 416.423, 338.177 415.440, 338.639 415.816 C 339.101 416.192, 338.741 415.600, 337.839 414.500 C 336.937 413.400, 335.502 410.813, 334.651 408.750 C 333.422 405.774, 332.565 405, 330.500 405 C 328.526 405, 327.550 404.215, 326.458 401.750 C 325.666 399.962, 324.394 397.410, 323.631 396.077 C 322.340 393.821, 322.203 393.787, 321.643 395.577 M 336 404.457 C 336 404.999, 339.161 413.285, 339.577 413.831 C 339.715 414.013, 340.721 413.685, 341.811 413.101 C 343.498 412.198, 343.885 412.406, 344.410 414.496 C 344.933 416.580, 345.592 416.938, 348.763 416.858 C 350.818 416.806, 353.400 416.929, 354.500 417.132 C 356.033 417.414, 357.015 416.450, 358.709 413 C 361.534 407.244, 361.519 406.807, 358.538 408.165 C 355.551 409.526, 341.775 407.642, 338.250 405.391 C 337.012 404.600, 336 404.180, 336 404.457 M 391.113 407.790 C 390.586 408.774, 388.995 410.200, 387.577 410.959 C 383.804 412.978, 383.945 417.618, 387.797 418.184 C 390.359 418.560, 390.560 418.361, 390.186 415.817 C 389.944 414.162, 390.618 411.618, 391.856 409.520 C 392.998 407.584, 393.514 406, 393.001 406 C 392.489 406, 391.639 406.805, 391.113 407.790 M 404.510 410.984 C 403.773 412.177, 404.709 414, 406.059 414 C 407.276 414, 407.284 411.293, 406.069 410.543 C 405.557 410.226, 404.856 410.425, 404.510 410.984 M 377.500 414.528 C 375.300 415.253, 370.604 415.881, 367.064 415.923 C 362.031 415.983, 360.155 416.445, 358.455 418.042 C 356.558 419.824, 355.934 419.927, 353.566 418.848 C 351.405 417.863, 350.444 417.866, 348.848 418.863 C 347.413 419.759, 346.478 419.811, 345.556 419.047 C 344.553 418.214, 343.909 419.264, 342.635 423.805 C 341.736 427.009, 341 430.930, 341 432.518 C 341 434.384, 339.917 436.522, 337.937 438.565 C 333.952 442.676, 333.699 447.154, 337.251 450.705 C 340.194 453.649, 342.804 453.382, 347.278 449.679 L 350.056 447.380 348.151 442.940 C 345.944 437.794, 344.630 431.653, 345.905 432.441 C 346.961 433.094, 352 445.455, 352 447.393 C 352 448.147, 350.215 450.550, 348.032 452.732 C 344.340 456.424, 341.363 461.696, 342.389 462.723 C 342.634 462.968, 344.649 463.412, 346.867 463.709 C 353.217 464.561, 358.948 460.650, 363.982 452.030 C 369.829 442.020, 372.208 435.982, 371.777 432.250 C 371.349 428.543, 372.668 427.829, 373.538 431.297 C 374.022 433.223, 371.910 440.395, 368.586 448.113 C 367.659 450.264, 373.777 451.415, 384.242 451.059 C 392.982 450.762, 394.121 451.621, 391.542 456.566 C 389.512 460.459, 389.604 461.718, 392.014 463.008 C 394.482 464.328, 399.757 463.434, 403.720 461.024 C 407.246 458.880, 410.057 450.978, 408.123 448.648 C 407.270 447.620, 407.362 446.226, 408.495 443.015 C 409.323 440.669, 410 437.658, 410 436.325 C 410 433.239, 407.374 428.131, 404.626 425.872 C 401.589 423.374, 392.386 420, 388.611 420 C 384.822 420, 383 418.474, 383 415.300 C 383 412.713, 383.004 412.714, 377.500 414.528 M 172.078 416.318 C 166.441 419.201, 163.895 422.642, 163.335 428.136 C 162.590 435.451, 168.761 442, 176.401 442 C 179.376 442, 179.350 442.144, 177.579 435.500 C 176.151 430.142, 176.506 420.300, 178.201 418.258 C 178.871 417.450, 180.551 417.224, 182.991 417.615 C 188.117 418.434, 189.135 416.409, 184.276 415.060 C 178.914 413.571, 177.080 413.760, 172.078 416.318 M 242.250 417.220 C 239.566 418.515, 239.550 418.679, 241.611 423.613 C 243.169 427.340, 243.095 432.842, 241.409 438.750 C 240.858 440.681, 241.144 441, 243.433 441 C 249.642 441, 256 435.097, 256 429.333 C 256 419.764, 249.270 413.835, 242.250 417.220 M 365.449 454.468 C 363.582 458.936, 363.592 460.922, 365.468 458.441 C 366.858 456.604, 366.938 456.674, 366.968 459.731 C 366.994 462.356, 367.483 463.083, 369.574 463.608 C 372.874 464.436, 376.428 462.802, 378.628 459.445 C 380.990 455.840, 379.581 453.912, 373.419 452.314 C 366.825 450.604, 367.094 450.532, 365.449 454.468" stroke="none" fill="#ccabed" fill-rule="evenodd"/></svg>